<svg width="24" height="33" viewBox="0 0 24 33" fill="none" xmlns="http://www.w3.org/2000/svg">
<g id="LOGO E 1" clip-path="url(#clip0_273_855)">
<g id="Layer 2">
<g id="OBJETCS">
<path id="Vector" d="M17.527 6.9H13.8101C12.1011 6.9 10.4621 7.57123 9.25369 8.76604C8.04526 9.96084 7.36636 11.5813 7.36636 13.271H16.8972C17.7505 13.2748 18.5678 13.6117 19.1712 14.2083C19.7746 14.8048 20.1153 15.6129 20.1191 16.4566C20.1191 17.3028 19.7801 18.1145 19.1763 18.7142C18.5725 19.3139 17.7531 19.6527 16.8972 19.6566H7.37515C7.37477 20.5026 7.54297 21.3404 7.87016 22.1221C8.19735 22.9039 8.67711 23.6142 9.28203 24.2126C9.88696 24.811 10.6052 25.2856 11.3957 25.6095C12.1862 25.9333 13.0335 26.1 13.8892 26.1H17.527C19.2437 26.1 20.8902 26.7743 22.1041 27.9745C23.318 29.1748 24 30.8026 24 32.5H5.60898C4.12139 32.5 2.69472 31.9157 1.64283 30.8757C0.590945 29.8357 0 28.4251 0 26.9543L0 6.0457C0 4.57489 0.590945 3.16432 1.64283 2.1243C2.69472 1.08428 4.12139 0.5 5.60898 0.5L24 0.5C24.0004 1.34057 23.8332 2.17297 23.5081 2.94962C23.1829 3.72628 22.7061 4.43196 22.105 5.02633C21.5038 5.6207 20.7901 6.09211 20.0045 6.4136C19.219 6.7351 18.3771 6.90038 17.527 6.9Z" fill="url(#paint0_linear_273_855)"/>
<path id="Vector_2" d="M5.60898 0.5C4.12139 0.5 2.69472 1.08428 1.64283 2.1243C0.590945 3.16432 0 4.57489 0 6.0457L0 12.4631C0 10.9923 0.590945 9.5817 1.64283 8.54167C2.69472 7.50165 4.12139 6.91738 5.60898 6.91738L7.36636 6.9H17.527C18.3771 6.90038 19.219 6.7351 20.0045 6.4136C20.7901 6.09211 21.5038 5.6207 22.105 5.02633C22.7061 4.43196 23.1829 3.72628 23.5081 2.94962C23.8332 2.17297 24.0004 1.34057 24 0.5H5.60898Z" fill="url(#paint1_linear_273_855)"/>
<path id="Vector_3" d="M5.60898 26.0809C4.12139 26.0809 2.69472 25.4966 1.64283 24.4566C0.590945 23.4165 0 22.006 0 20.5352L0 26.9525C0 28.4233 0.590945 29.8339 1.64283 30.8739C2.69472 31.914 4.12139 32.4982 5.60898 32.4982H24C24 30.8008 23.318 29.173 22.1041 27.9727C20.8902 26.7725 19.2437 26.0982 17.527 26.0982H7.37515L5.60898 26.0809Z" fill="url(#paint2_linear_273_855)"/>
<path id="Vector_4" d="M5.60898 13.2898C4.87191 13.2898 4.14206 13.1461 3.46117 12.8671C2.78027 12.588 2.16168 12.179 1.64076 11.6634C1.11984 11.1478 0.706812 10.5358 0.425279 9.86231C0.143746 9.1888 -0.000766732 8.46704 3.05926e-06 7.73828V14.1614C3.05926e-06 15.6323 0.590948 17.0428 1.64284 18.0829C2.69472 19.1229 4.12139 19.7071 5.60898 19.7071H23.669C23.669 18.0098 22.987 16.3819 21.7731 15.1817C20.5592 13.9814 18.9128 13.3071 17.196 13.3071H17.3249L5.60898 13.2898Z" fill="url(#paint3_linear_273_855)"/>
</g>
</g>
</g>
<defs>
<linearGradient id="paint0_linear_273_855" x1="12" y1="32.5" x2="12" y2="0.5" gradientUnits="userSpaceOnUse">
<stop offset="0.01" stop-color="#CE89FE"/>
<stop offset="0.18" stop-color="#B299FC"/>
<stop offset="0.55" stop-color="#6BC2F6"/>
<stop offset="1" stop-color="#0DF8EF"/>
</linearGradient>
<linearGradient id="paint1_linear_273_855" x1="0" y1="6.48299" x2="24" y2="6.48299" gradientUnits="userSpaceOnUse">
<stop offset="0.01" stop-color="#CE89FE"/>
<stop offset="0.18" stop-color="#B299FC"/>
<stop offset="0.55" stop-color="#6BC2F6"/>
<stop offset="1" stop-color="#0DF8EF"/>
</linearGradient>
<linearGradient id="paint2_linear_273_855" x1="0" y1="26.5181" x2="24" y2="26.5181" gradientUnits="userSpaceOnUse">
<stop stop-color="#8211FB"/>
<stop offset="1" stop-color="#F454A5"/>
</linearGradient>
<linearGradient id="paint3_linear_273_855" x1="3.05926e-06" y1="13.7242" x2="23.669" y2="13.7242" gradientUnits="userSpaceOnUse">
<stop stop-color="#747474"/>
<stop offset="1" stop-color="#F454A5"/>
</linearGradient>
<clipPath id="clip0_273_855">
<rect width="24" height="32" fill="white" transform="translate(0 0.5)"/>
</clipPath>
</defs>
</svg>
